<svg width="360" height="526" viewBox="0 0 360 526" fill="none" xmlns="http://www.w3.org/2000/svg">
<g filter="url(#filter0_dddd_1_6661)">
<path d="M100.166 57.2124L79.2453 97H72.7528L51.8601 57.2124H58.3249L75.999 90.8682L93.6731 57.2124H100.166ZM150.164 57.2124L129.243 97H122.751L101.858 57.2124H108.323L125.997 90.8682L143.671 57.2124H150.164ZM161.456 97H155.768V57.2124H161.456V97ZM199.662 97H193.974V77.1062C193.974 75.1455 193.604 73.305 192.865 71.5848C192.125 69.8645 191.107 68.3663 189.813 67.09C188.536 65.7952 187.029 64.7778 185.29 64.0379C183.57 63.2795 181.729 62.9003 179.769 62.9003H176.717V97H171.029V57.2124H179.769C181.581 57.2124 183.32 57.4529 184.985 57.9338C186.668 58.3963 188.24 59.0529 189.702 59.9038C191.163 60.7547 192.495 61.772 193.697 62.9558C194.899 64.1396 195.944 65.453 196.832 66.8957C197.702 65.453 198.737 64.1396 199.94 62.9558C201.142 61.772 202.474 60.7547 203.935 59.9038C205.396 59.0529 206.959 58.3963 208.624 57.9338C210.307 57.4529 212.055 57.2124 213.868 57.2124H222.636V97H216.948V62.9003H213.868C211.908 62.9003 210.067 63.2795 208.347 64.0379C206.627 64.7778 205.119 65.7952 203.824 67.09C202.548 68.3663 201.531 69.8645 200.772 71.5848C200.032 73.305 199.662 75.1455 199.662 77.1062V97ZM276.102 85.6242C276.102 87.215 275.806 88.704 275.214 90.0913C274.622 91.4601 273.809 92.6624 272.773 93.6982C271.755 94.7156 270.553 95.5202 269.166 96.1121C267.797 96.704 266.326 97 264.754 97H230.183V91.3121H264.754C265.55 91.3121 266.289 91.1641 266.974 90.8682C267.658 90.5722 268.25 90.1653 268.75 89.6473C269.267 89.1294 269.674 88.5283 269.97 87.8439C270.266 87.141 270.414 86.4011 270.414 85.6242C270.414 84.8473 270.266 84.1167 269.97 83.4323C269.674 82.7479 269.267 82.1467 268.75 81.6288C268.25 81.1109 267.658 80.7039 266.974 80.408C266.289 80.112 265.55 79.964 264.754 79.964H241.559C240.005 79.964 238.534 79.6681 237.147 79.0762C235.76 78.4843 234.548 77.6796 233.512 76.6623C232.495 75.6264 231.681 74.4149 231.071 73.0276C230.479 71.6403 230.183 70.1605 230.183 68.5882C230.183 67.0345 230.479 65.5639 231.071 64.1766C231.681 62.7894 232.495 61.587 233.512 60.5697C234.548 59.5338 235.76 58.72 237.147 58.128C238.534 57.5176 240.005 57.2124 241.559 57.2124H273.272V62.9003H241.559C240.782 62.9003 240.042 63.0483 239.339 63.3443C238.655 63.6402 238.053 64.0472 237.535 64.5651C237.018 65.083 236.611 65.6934 236.315 66.3963C236.019 67.0807 235.871 67.8114 235.871 68.5882C235.871 69.3651 236.019 70.105 236.315 70.8079C236.611 71.4923 237.018 72.0935 237.535 72.6114C238.053 73.1293 238.655 73.5362 239.339 73.8322C240.042 74.1282 240.782 74.2761 241.559 74.2761H264.754C266.326 74.2761 267.797 74.5813 269.166 75.1918C270.553 75.7837 271.755 76.5975 272.773 77.6334C273.809 78.6507 274.622 79.8531 275.214 81.2403C275.806 82.6091 276.102 84.0704 276.102 85.6242Z" fill="white"/>
<path d="M304.209 69.5593C304.209 70.7247 304.07 71.7513 303.793 72.6391C303.534 73.5085 303.182 74.2669 302.738 74.9143C302.294 75.5617 301.786 76.1074 301.212 76.5513C300.657 76.9767 300.084 77.3189 299.492 77.5779C298.9 77.8369 298.317 78.0218 297.744 78.1328C297.171 78.2438 296.653 78.2993 296.19 78.2993H289.198C288.495 78.2993 287.681 78.1698 286.757 77.9108C285.85 77.6519 284.981 77.1987 284.148 76.5513C283.335 75.8854 282.641 74.9883 282.068 73.8599C281.494 72.7316 281.207 71.2981 281.207 69.5593V65.9246C281.207 64.1859 281.494 62.7524 282.068 61.624C282.641 60.4772 283.335 59.5708 284.148 58.9049C284.981 58.239 285.85 57.7766 286.757 57.5176C287.681 57.2402 288.495 57.1014 289.198 57.1014H296.19C296.653 57.1014 297.171 57.1569 297.744 57.2679C298.317 57.3789 298.9 57.5731 299.492 57.8506C300.084 58.1095 300.657 58.461 301.212 58.9049C301.786 59.3489 302.294 59.9038 302.738 60.5697C303.182 61.2171 303.534 61.9847 303.793 62.8726C304.07 63.7605 304.209 64.7778 304.209 65.9246V69.5593ZM298.882 65.8136C298.882 66.4796 298.78 67.0622 298.576 67.5616C298.373 68.0426 298.105 68.4495 297.772 68.7825C297.439 69.1154 297.069 69.3836 296.662 69.5871C296.255 69.7906 295.857 69.9293 295.469 70.0033L300.019 73.527C300.352 73.1016 300.63 72.5744 300.852 71.9455C301.092 71.2981 301.212 70.5027 301.212 69.5593V65.9246C301.212 65.1477 301.092 64.4171 300.852 63.7327C300.63 63.0298 300.306 62.4102 299.88 61.8737C299.455 61.3373 298.928 60.9119 298.299 60.5974C297.67 60.283 296.967 60.1257 296.19 60.1257H289.198C289.106 60.1257 288.921 60.1442 288.643 60.1812C288.366 60.1997 288.042 60.2737 287.672 60.4032C287.302 60.5142 286.914 60.6899 286.507 60.9304C286.1 61.1708 285.721 61.513 285.369 61.957C285.036 62.3824 284.759 62.9188 284.537 63.5662C284.315 64.2136 284.204 64.9998 284.204 65.9246V69.5593C284.204 70.3177 284.324 71.0484 284.565 71.7513C284.805 72.4357 285.138 73.0461 285.564 73.5825C286.007 74.1004 286.535 74.5166 287.145 74.8311C287.755 75.1455 288.44 75.3027 289.198 75.3027H296.19C296.246 75.3027 296.366 75.3027 296.551 75.3027C296.736 75.2842 296.939 75.2472 297.161 75.1918L290.808 70.0588V67.0067H294.609C295.016 67.0067 295.321 66.905 295.524 66.7015C295.746 66.4796 295.857 66.1836 295.857 65.8136V64.6206H289.781V73.0831H286.757V61.5408H295.913C296.394 61.5408 296.819 61.6333 297.189 61.8182C297.559 61.9847 297.864 62.2067 298.105 62.4841C298.364 62.7616 298.558 63.0853 298.687 63.4553C298.817 63.8067 298.882 64.1581 298.882 64.5096V65.8136Z" fill="#16DBCC"/>
</g>
<defs>
<filter id="filter0_dddd_1_6661" x="-247.41" y="0.277912" width="854.678" height="1151.75" filterUnits="userSpaceOnUse" color-interpolation-filters="sRGB">
<feFlood flood-opacity="0" result="BackgroundImageFix"/>
<feColorMatrix in="SourceAlpha" type="matrix" values="0 0 0 0 0 0 0 0 0 0 0 0 0 0 0 0 0 0 127 0" result="hardAlpha"/>
<feOffset dy="47.3529"/>
<feGaussianBlur stdDeviation="52.0882"/>
<feColorMatrix type="matrix" values="0 0 0 0 0.301961 0 0 0 0 0.298039 0 0 0 0 0.298039 0 0 0 0.1 0"/>
<feBlend mode="normal" in2="BackgroundImageFix" result="effect1_dropShadow_1_6661"/>
<feColorMatrix in="SourceAlpha" type="matrix" values="0 0 0 0 0 0 0 0 0 0 0 0 0 0 0 0 0 0 127 0" result="hardAlpha"/>
<feOffset dy="187.518"/>
<feGaussianBlur stdDeviation="93.7588"/>
<feColorMatrix type="matrix" values="0 0 0 0 0.301961 0 0 0 0 0.298039 0 0 0 0 0.298039 0 0 0 0.09 0"/>
<feBlend mode="normal" in2="effect1_dropShadow_1_6661" result="effect2_dropShadow_1_6661"/>
<feColorMatrix in="SourceAlpha" type="matrix" values="0 0 0 0 0 0 0 0 0 0 0 0 0 0 0 0 0 0 127 0" result="hardAlpha"/>
<feOffset dy="424.282"/>
<feGaussianBlur stdDeviation="126.906"/>
<feColorMatrix type="matrix" values="0 0 0 0 0.301961 0 0 0 0 0.298039 0 0 0 0 0.298039 0 0 0 0.05 0"/>
<feBlend mode="normal" in2="effect2_dropShadow_1_6661" result="effect3_dropShadow_1_6661"/>
<feColorMatrix in="SourceAlpha" type="matrix" values="0 0 0 0 0 0 0 0 0 0 0 0 0 0 0 0 0 0 127 0" result="hardAlpha"/>
<feOffset dx="1.89412" dy="753.859"/>
<feGaussianBlur stdDeviation="150.582"/>
<feColorMatrix type="matrix" values="0 0 0 0 0.301961 0 0 0 0 0.298039 0 0 0 0 0.298039 0 0 0 0.01 0"/>
<feBlend mode="normal" in2="effect3_dropShadow_1_6661" result="effect4_dropShadow_1_6661"/>
<feBlend mode="normal" in="SourceGraphic" in2="effect4_dropShadow_1_6661" result="shape"/>
</filter>
</defs>
</svg>
