<svg width="18" height="19" viewBox="0 0 18 19" fill="none" xmlns="http://www.w3.org/2000/svg">
<path d="M16.3125 6.63025C16.3125 6.93775 16.0575 7.19275 15.75 7.19275H2.25C1.9425 7.19275 1.6875 6.93775 1.6875 6.63025C1.6875 6.32275 1.9425 6.06775 2.25 6.06775H3.015L3.3 4.71025C3.57 3.39775 4.1325 2.19025 6.3675 2.19025H11.6325C13.8675 2.19025 14.43 3.39775 14.7 4.71025L14.985 6.06775H15.75C16.0575 6.06775 16.3125 6.32275 16.3125 6.63025Z" fill="#16DBCC"/>
<path d="M16.6342 10.8752C16.5217 9.63775 16.1917 8.31775 13.7842 8.31775H4.21421C1.80671 8.31775 1.48421 9.63775 1.36421 10.8752L0.94421 15.4427C0.89171 16.0127 1.07921 16.5827 1.46921 17.0102C1.86671 17.4452 2.42921 17.6927 3.02921 17.6927H4.43921C5.65421 17.6927 5.88671 16.9952 6.03671 16.5377L6.18671 16.0877C6.35921 15.5702 6.40421 15.4427 7.07921 15.4427H10.9192C11.5942 15.4427 11.6167 15.5177 11.8117 16.0877L11.9617 16.5377C12.1117 16.9952 12.3442 17.6927 13.5592 17.6927H14.9692C15.5617 17.6927 16.1317 17.4452 16.5292 17.0102C16.9192 16.5827 17.1067 16.0127 17.0542 15.4427L16.6342 10.8752ZM6.74921 12.4427H4.49921C4.19171 12.4427 3.93671 12.1877 3.93671 11.8802C3.93671 11.5727 4.19171 11.3177 4.49921 11.3177H6.74921C7.05671 11.3177 7.31171 11.5727 7.31171 11.8802C7.31171 12.1877 7.05671 12.4427 6.74921 12.4427ZM13.4992 12.4427H11.2492C10.9417 12.4427 10.6867 12.1877 10.6867 11.8802C10.6867 11.5727 10.9417 11.3177 11.2492 11.3177H13.4992C13.8067 11.3177 14.0617 11.5727 14.0617 11.8802C14.0617 12.1877 13.8067 12.4427 13.4992 12.4427Z" fill="#16DBCC"/>
</svg>
